<svg version="1.1" id="Layer_1" xmlns="http://www.w3.org/2000/svg" xmlns:xlink="http://www.w3.org/1999/xlink" x="0px" y="0px"
	 width="100%" viewBox="0 0 128 128" enable-background="new 0 0 128 128" xml:space="preserve">
<path fill="#FFFFFF" opacity="1.000000" stroke="none" 
	d="
M0.999999,121.000000 
	C1.000000,83.979103 1.000000,46.958210 1.293084,9.755748 
	C3.702051,7.559053 5.876402,5.600033 7.897502,3.493947 
	C8.488993,2.877584 8.644607,1.842933 9.000000,1.000000 
	C46.020893,1.000000 83.041786,1.000000 120.244492,1.288444 
	C123.284195,4.051259 126.142097,6.525630 129.000000,9.000001 
	C129.000000,46.020893 129.000000,83.041786 128.710205,120.244041 
	C125.946945,123.283600 123.473473,126.141800 121.000000,129.000000 
	C83.979103,129.000000 46.958210,129.000000 9.755638,128.708069 
	C6.715973,125.944084 3.857985,123.472046 0.999999,121.000000 
M90.000000,102.380585 
	C90.000000,103.822723 90.000000,105.264862 90.000000,106.751068 
	C95.900787,106.751068 101.305466,106.751068 105.997505,106.751068 
	C105.997505,92.950363 106.495735,79.377518 105.790619,65.867477 
	C105.429535,58.948997 100.406151,53.078518 92.700684,50.906292 
	C82.982498,48.166664 75.861275,51.784466 69.327431,59.553898 
	C69.125450,56.756565 68.968048,54.576637 68.807640,52.355003 
	C63.814003,52.355003 58.943985,52.355003 54.353073,52.355003 
	C54.353073,70.782143 54.353073,88.853302 54.353073,106.643158 
	C59.454697,106.643158 64.198792,106.643158 69.000145,106.643158 
	C69.000145,96.125900 68.368370,85.914429 69.181824,75.819412 
	C69.960281,66.158783 73.360428,64.471123 81.847771,64.970291 
	C87.488792,65.302055 89.994789,68.511513 89.998901,75.906990 
	C90.003632,84.404732 90.000000,92.902473 90.000000,102.380585 
M41.000000,68.501617 
	C41.000000,63.070496 41.000000,57.639378 41.000000,52.288631 
	C35.351933,52.288631 30.280407,52.288631 25.285999,52.288631 
	C25.285999,70.647118 25.285999,88.715607 25.285999,106.711365 
	C30.648087,106.711365 35.719612,106.711365 41.000000,106.711365 
	C41.000000,94.116226 41.000000,81.808731 41.000000,68.501617 
M40.971680,38.273529 
	C41.309242,35.568359 42.276997,32.758797 41.849865,30.180300 
	C41.025024,25.200960 35.356239,22.580362 29.769468,24.099636 
	C25.615833,25.229183 22.565601,30.837347 23.941193,35.058205 
	C26.784788,43.783463 33.041107,45.301319 40.971680,38.273529 
z"/>
<path fill="#00000000" opacity="1.000000" stroke="none" 
	d="
M129.000000,8.505268 
	C126.142097,6.525630 123.284195,4.051259 120.713150,1.288444 
	C123.582458,1.000000 126.164917,1.000000 129.000000,1.000000 
	C129.000000,3.333921 129.000000,5.672227 129.000000,8.505268 
z"/>
<path fill="#00000000" opacity="1.000000" stroke="none" 
	d="
M121.494736,129.000000 
	C123.473473,126.141800 125.946945,123.283600 128.710205,120.712700 
	C129.000000,123.582458 129.000000,126.164917 129.000000,129.000000 
	C126.666077,129.000000 124.327774,129.000000 121.494736,129.000000 
z"/>
<path fill="#00000000" opacity="1.000000" stroke="none" 
	d="
M8.505266,1.000000 
	C8.644607,1.842933 8.488993,2.877584 7.897502,3.493947 
	C5.876402,5.600033 3.702051,7.559053 1.293084,9.287090 
	C1.000000,6.417543 1.000000,3.835086 1.000000,1.000000 
	C3.333921,1.000000 5.672227,1.000000 8.505266,1.000000 
z"/>
<path fill="#00000000" opacity="1.000000" stroke="none" 
	d="
M0.999999,121.494736 
	C3.857985,123.472046 6.715973,125.944084 9.286980,128.708069 
	C6.417542,129.000000 3.835084,129.000000 1.000000,129.000000 
	C1.000000,126.666077 1.000000,124.327774 0.999999,121.494736 
z"/>
<path fill="#00000000" opacity="1.000000" stroke="none" 
	d="
M90.000000,101.890396 
	C90.000000,92.902473 90.003632,84.404732 89.998901,75.906990 
	C89.994789,68.511513 87.488792,65.302055 81.847771,64.970291 
	C73.360428,64.471123 69.960281,66.158783 69.181824,75.819412 
	C68.368370,85.914429 69.000145,96.125900 69.000145,106.643158 
	C64.198792,106.643158 59.454697,106.643158 54.353073,106.643158 
	C54.353073,88.853302 54.353073,70.782143 54.353073,52.355003 
	C58.943985,52.355003 63.814003,52.355003 68.807640,52.355003 
	C68.968048,54.576637 69.125450,56.756565 69.327431,59.553898 
	C75.861275,51.784466 82.982498,48.166664 92.700684,50.906292 
	C100.406151,53.078518 105.429535,58.948997 105.790619,65.867477 
	C106.495735,79.377518 105.997505,92.950363 105.997505,106.751068 
	C101.305466,106.751068 95.900787,106.751068 90.000000,106.751068 
	C90.000000,105.264862 90.000000,103.822723 90.000000,101.890396 
z"/>
<path fill="#00000000" opacity="1.000000" stroke="none" 
	d="
M41.000000,69.001434 
	C41.000000,81.808731 41.000000,94.116226 41.000000,106.711365 
	C35.719612,106.711365 30.648087,106.711365 25.285999,106.711365 
	C25.285999,88.715607 25.285999,70.647118 25.285999,52.288631 
	C30.280407,52.288631 35.351933,52.288631 41.000000,52.288631 
	C41.000000,57.639378 41.000000,63.070496 41.000000,69.001434 
z"/>
<path fill="#00000000" opacity="1.000000" stroke="none" 
	d="
M40.775360,38.605621 
	C33.041107,45.301319 26.784788,43.783463 23.941193,35.058205 
	C22.565601,30.837347 25.615833,25.229183 29.769468,24.099636 
	C35.356239,22.580362 41.025024,25.200960 41.849865,30.180300 
	C42.276997,32.758797 41.309242,35.568359 40.775360,38.605621 
z"/>
</svg>